<svg xmlns="http://www.w3.org/2000/svg" xmlns:xlink="http://www.w3.org/1999/xlink" width="100%" height="100%" version="1.1" viewBox="0 0 1921 1174" xml:space="preserve" style="fill-rule:evenodd;clip-rule:evenodd;stroke-miterlimit:1.5"><g transform="matrix(1,0,0,1,-54612,-16695)"><g id="White-on-black" transform="matrix(0.637873,0,0,0.425829,49772.1,16695.1)"><rect width="3010.73" height="2756.39" x="7587.95" y="0" style="fill:none"/><g><g><path d="M38169.6,19225.7C38496.4,19270.6 38748.4,19551.2 38748.4,19890.2C38748.4,20260.4 38447.8,20560.9 38077.6,20560.9C37739.8,20560.9 37459.9,20310.6 37413.6,19985.5L37547.2,19851.2C37546.2,19864.1 37545.8,19877.1 37545.8,19890.2C37545.8,20183.7 37784.1,20422 38077.6,20422C38371.2,20422 38609.5,20183.7 38609.5,19890.2C38609.5,19596.6 38371.2,19358.3 38077.6,19358.3C38063.6,19358.3 38049.7,19358.9 38036,19359.9L38169.6,19225.7ZM38061.2,19219.6L37888.9,19392.8C37746.2,19447.1 37632.8,19561 37579.3,19704L37407,19877.2C37413.8,19518.4 37702.9,19228.2 38061.2,19219.6Z" transform="matrix(5.34061,0,0,7.99999,-251615,-135443) matrix(0.148909,0,0,0.148909,43146.2,14120.5)" style="fill:#0090f0"/></g><g><path d="M38739.8,8583.83C38537.3,9037.18 38082.4,9351.38 37554.2,9351.38C37026,9351.38 36571.1,9038.18 36368.6,8584.83" transform="matrix(5.34061,0,0,7.99999,-251615,-135443) matrix(0.141022,0,0,0.124684,43520.4,16057)" style="fill:none;stroke:#333;stroke-width:125px"/></g></g></g></g></svg>